<svg width="113" height="114" viewBox="0 0 113 114" fill="none" xmlns="http://www.w3.org/2000/svg">
<g clip-path="url(#clip0_2_3)">
<path d="M19.6 113.4L36 85L52.4 56.7L68.7 28.3L71.4 23.8L72.6 28.3L77.6 47L72 56.7L55.6 85L39.3 113.4H58.9L75.3 85L83.8 70.3L87.8 85L95.4 113.4H113L105.4 85L97.8 56.7L95.8 49.4L108 28.3H90.2L89.6 26.2L83.4 3L82.6 0H65.5L65.1 0.6L49.1 28.3L32.7 56.7L16.4 85L0 113.4H19.6Z" fill="white"/>
</g>
<defs>
<clipPath id="clip0_2_3">
<rect width="113" height="113.4" fill="white"/>
</clipPath>
</defs>
</svg>
